<svg width="52" height="51" viewBox="0 0 52 51" fill="none" xmlns="http://www.w3.org/2000/svg">
<g clip-path="url(#clip0_1934_5657)">
<path d="M26.1777 2.65926C38.8631 2.65926 49.1825 12.9787 49.1825 25.6641C49.1825 38.3494 38.8631 48.6689 26.1777 48.6689C13.4924 48.6689 3.17293 38.3494 3.17293 25.6641C3.17293 12.9787 13.4924 2.65926 26.1777 2.65926ZM26.1777 0.414062C12.2323 0.414062 0.927734 11.7186 0.927734 25.6641C0.927734 39.6095 12.2323 50.9141 26.1777 50.9141C40.1232 50.9141 51.4277 39.6095 51.4277 25.6641C51.4277 11.7186 40.1232 0.414062 26.1777 0.414062Z" fill="white"/>
<path d="M32.8517 17.1721C32.8517 15.4573 31.4569 14.0625 29.7421 14.0625H11.1604C9.44561 14.0625 8.05078 15.4573 8.05078 17.1721V32.4366C8.05078 34.1514 9.44561 35.5462 11.1604 35.5462H12.6787C12.6675 35.4199 12.659 35.2908 12.659 35.1589C12.659 34.4938 12.8162 33.8623 13.0856 33.301H11.1604C10.6833 33.301 10.296 32.9137 10.296 32.4366V17.1721C10.296 16.695 10.6833 16.3077 11.1604 16.3077H29.7421C30.2193 16.3077 30.6066 16.695 30.6066 17.1721V33.301H20.8512C21.1234 33.8651 21.2778 34.4938 21.2778 35.1589C21.2778 35.288 21.2694 35.4171 21.2581 35.5462H32.8517V17.1721Z" fill="white"/>
<path d="M20.8495 33.305C20.1535 31.8569 18.6773 30.855 16.9681 30.855C15.259 30.855 13.7828 31.8597 13.0867 33.305C12.8145 33.8692 12.6602 34.4978 12.6602 35.1629C12.6602 35.292 12.6686 35.4211 12.6798 35.5502C12.8763 37.7477 14.7229 39.4737 16.9709 39.4737C19.2161 39.4737 21.0656 37.7449 21.2621 35.5502C21.2733 35.4239 21.2817 35.2948 21.2817 35.1629C21.2789 34.4978 21.1217 33.8692 20.8495 33.305ZM16.9681 37.2285C15.9606 37.2285 15.1214 36.5044 14.9418 35.5502C14.9194 35.4239 14.9053 35.2977 14.9053 35.1629C14.9053 34.3434 15.3853 33.6362 16.0785 33.305C16.3479 33.1731 16.651 33.1002 16.9709 33.1002C17.2909 33.1002 17.594 33.1759 17.8634 33.305C18.5566 33.639 19.0365 34.3463 19.0365 35.1629C19.0365 35.2948 19.0225 35.4239 19 35.5502C18.8148 36.5044 17.9728 37.2285 16.9681 37.2285Z" fill="white"/>
<path d="M44.7802 25.0576L40.0906 17.9263C39.8829 17.612 39.5293 17.4211 39.1532 17.4211H31.73C31.1098 17.4211 30.6074 17.9235 30.6074 18.5437C30.6074 19.164 31.1098 19.6663 31.73 19.6663H38.5498L42.723 26.0118V33.3031H41.4236C41.6005 33.7746 41.7015 34.2797 41.7015 34.813C41.7015 35.0656 41.6762 35.3097 41.6341 35.5483H43.8456C44.4659 35.5483 44.9682 35.0459 44.9682 34.4257V25.675C44.9626 25.4561 44.9009 25.24 44.7802 25.0576Z" fill="white"/>
<path d="M33.3561 33.3025H29.2867C28.6664 33.3025 28.1641 33.8049 28.1641 34.4251C28.1641 35.0453 28.6664 35.5477 29.2867 35.5477H33.1456C33.1035 35.3091 33.0782 35.0622 33.0782 34.8124C33.0782 34.2791 33.1793 33.7712 33.3561 33.3025Z" fill="white"/>
<path d="M41.4179 33.3038C40.8033 31.6704 39.2317 30.5029 37.385 30.5029C35.5383 30.5029 33.9667 31.6704 33.3521 33.3038C33.1753 33.7753 33.0742 34.2805 33.0742 34.8137C33.0742 35.0663 33.0995 35.3104 33.1416 35.549C33.4924 37.5753 35.2577 39.1217 37.385 39.1217C39.5095 39.1217 41.2776 37.5753 41.6284 35.549C41.6705 35.3104 41.6958 35.0635 41.6958 34.8137C41.6958 34.2805 41.5947 33.7725 41.4179 33.3038ZM37.385 36.8765C36.5066 36.8765 35.7544 36.3236 35.4569 35.549C35.3699 35.3189 35.3194 35.0719 35.3194 34.8137C35.3194 34.2187 35.5748 33.6827 35.9789 33.3038C36.3466 32.9586 36.8405 32.7481 37.385 32.7481C37.9294 32.7481 38.4206 32.9614 38.791 33.3038C39.1952 33.6799 39.4506 34.2159 39.4506 34.8137C39.4506 35.0747 39.4 35.3217 39.313 35.549C39.0156 36.3236 38.2662 36.8765 37.385 36.8765Z" fill="white"/>
<path d="M43.8424 27.0451H35.6082C35.2995 27.0451 35.0469 26.7926 35.0469 26.4839V19.0523C35.0469 18.7436 35.2995 18.491 35.6082 18.491C35.9169 18.491 36.1695 18.7436 36.1695 19.0523V25.9226H43.8424C44.1511 25.9226 44.4037 26.1751 44.4037 26.4839C44.4037 26.7926 44.1539 27.0451 43.8424 27.0451Z" fill="white"/>
<path d="M20.451 29.863C17.0748 29.863 14.3301 27.1155 14.3301 23.7421C14.3301 20.3686 17.0776 17.6211 20.451 17.6211C23.8244 17.6211 26.572 20.3686 26.572 23.7421C26.572 27.1155 23.8272 29.863 20.451 29.863ZM20.451 18.7437C17.6951 18.7437 15.4527 20.9861 15.4527 23.7421C15.4527 26.498 17.6951 28.7404 20.451 28.7404C23.207 28.7404 25.4494 26.498 25.4494 23.7421C25.4494 20.9861 23.207 18.7437 20.451 18.7437Z" fill="white"/>
<path d="M23.2161 24.3028H20.4011C20.0924 24.3028 19.8398 24.0503 19.8398 23.7416V19.9837C19.8398 19.6749 20.0924 19.4224 20.4011 19.4224C20.7099 19.4224 20.9624 19.6749 20.9624 19.9837V23.1803H23.2161C23.5248 23.1803 23.7774 23.4328 23.7774 23.7416C23.7774 24.0503 23.5248 24.3028 23.2161 24.3028Z" fill="white"/>
</g>
<defs>
<clipPath id="clip0_1934_5657">
<rect width="50.5" height="50.5" fill="white" transform="translate(0.927734 0.414062)"/>
</clipPath>
</defs>
</svg>
