<svg width="113" height="28" viewBox="0 0 113 28" fill="none" xmlns="http://www.w3.org/2000/svg">
<path d="M12.6536 8.62259C12.0792 7.97669 11.3659 7.46927 10.5673 7.1384C9.69862 6.78182 8.76686 6.60442 7.82792 6.61682C6.78537 6.60981 5.74972 6.78636 4.76838 7.1384C3.84724 7.46331 2.99973 7.96778 2.27495 8.62259C1.56508 9.27724 0.997768 10.0712 0.608424 10.9549C0.206779 11.9193 0 12.9538 0 13.9985C0 15.0433 0.206779 16.0777 0.608424 17.0421C0.997556 17.926 1.5649 18.7199 2.27495 19.3744C2.99973 20.0292 3.84724 20.5337 4.76838 20.8586C5.74972 21.2107 6.78537 21.3872 7.82792 21.3802C8.96824 21.3797 10.095 21.133 11.1313 20.6572C12.165 20.196 13.0705 19.4892 13.7689 18.5984L10.7263 16.3679C10.3753 16.8545 9.9376 17.2721 9.43508 17.5998C8.89116 17.9327 8.26176 18.0992 7.62438 18.079C6.84287 18.102 6.07983 17.8389 5.47867 17.339C4.8873 16.8252 4.4887 16.1252 4.34857 15.3544H14.4368V13.9911C14.4494 12.9606 14.2933 11.9349 13.9746 10.9549C13.6928 10.0978 13.2438 9.30503 12.6536 8.62259ZM4.34857 12.3966C4.36766 12.0507 4.45106 11.7113 4.59452 11.3959C4.73876 11.0749 4.94647 10.7864 5.20516 10.5478C5.48181 10.2963 5.80044 10.0954 6.14655 9.95411C6.55096 9.79305 6.98349 9.71447 7.41871 9.723C7.7792 9.70992 8.13841 9.77281 8.47301 9.9076C8.80761 10.0424 9.11011 10.2461 9.36087 10.5054C9.60534 10.7525 9.79599 11.0475 9.92079 11.3719C10.0456 11.6963 10.1018 12.0431 10.086 12.3903H4.34857V12.3966Z" fill="black"/>
<path d="M28.7312 8.51308C28.3456 7.90597 27.7977 7.419 27.1495 7.10734C26.4739 6.7681 25.5855 6.59918 24.4844 6.60059C23.9932 6.60004 23.5046 6.67148 23.0341 6.81262C22.6179 6.93578 22.219 7.11103 21.8468 7.33421C21.5161 7.53481 21.2138 7.77867 20.9478 8.05934C20.7171 8.30101 20.5221 8.57448 20.3689 8.8714H20.3096V6.96316H16.1348V21.0502H20.4834V14.0215C20.4826 13.5755 20.5117 13.13 20.5704 12.6879C20.6211 12.2875 20.744 11.8996 20.9329 11.5429C21.118 11.2034 21.3941 10.9222 21.7301 10.7309C22.1489 10.5104 22.6186 10.4051 23.0913 10.4256C23.5103 10.3823 23.9317 10.4819 24.2869 10.7082C24.6422 10.9345 24.9105 11.2742 25.0483 11.6723C25.1977 12.0576 25.2857 12.464 25.3091 12.8766C25.3388 13.3006 25.3537 13.7247 25.3537 14.136V21.0353H29.7023V13.2667C29.7044 12.3832 29.6335 11.501 29.4903 10.6291C29.3806 9.88027 29.1225 9.16088 28.7312 8.51308Z" fill="black"/>
<path d="M60.6202 8.48342C60.0995 7.84694 59.4179 7.36154 58.6462 7.07769C57.8264 6.75965 56.7782 6.60063 55.5018 6.60063C54.3571 6.59733 53.2201 6.78802 52.1391 7.16462C51.0842 7.52578 50.1164 8.10355 49.298 8.86083L51.6154 11.2376C52.0609 10.7317 52.5975 10.3138 53.1971 10.0058C53.8036 9.70238 54.4739 9.54827 55.152 9.55627C55.8647 9.54185 56.559 9.78332 57.109 10.2369C57.3797 10.4588 57.5953 10.7406 57.7388 11.0599C57.8822 11.3792 57.9497 11.7275 57.9359 12.0773C57.3352 12.0773 56.6828 12.0872 55.9789 12.107C55.2696 12.1278 54.5619 12.1858 53.8586 12.2808C53.1664 12.3757 52.4829 12.526 51.8147 12.7303C51.1883 12.9165 50.5961 13.2029 50.0613 13.5784C49.5523 13.9418 49.1348 14.4187 48.8421 14.9714C48.5259 15.6104 48.3722 16.3176 48.3947 17.0302C48.38 17.6809 48.5188 18.3259 48.7997 18.913C49.0612 19.4432 49.437 19.9088 49.9001 20.2763C50.3789 20.6515 50.9252 20.9315 51.5094 21.1011C52.1282 21.2873 52.7714 21.3802 53.4176 21.3767C54.2898 21.3815 55.1544 21.2144 55.962 20.8848C56.7588 20.56 57.4331 19.9925 57.8893 19.2628H57.9486V21.0311H61.9474V13.8774C61.9605 12.8312 61.8639 11.7866 61.6591 10.7606C61.4957 9.93069 61.1399 9.15072 60.6202 8.48342ZM57.938 15.7898C57.9475 16.194 57.8518 16.5936 57.6603 16.9496C57.481 17.2742 57.2283 17.5523 56.9224 17.7617C56.5973 17.9807 56.2395 18.1468 55.8623 18.2536C55.4619 18.3693 55.0472 18.4278 54.6304 18.4275C54.1416 18.4264 53.6618 18.2962 53.2395 18.05C53.029 17.9408 52.8541 17.7735 52.7357 17.568C52.6174 17.3624 52.5604 17.1272 52.5716 16.8903C52.5604 16.6779 52.5977 16.4657 52.6807 16.2699C52.7637 16.074 52.8903 15.8997 53.0508 15.7602C53.3906 15.4784 53.7857 15.2711 54.2106 15.1517C54.673 15.0146 55.1497 14.9313 55.6312 14.9036C56.1252 14.8739 56.5344 14.8591 56.8631 14.8591H57.9359V15.7898H57.938Z" fill="black"/>
<path d="M74.9683 8.80254H74.9089C74.7066 8.5201 74.4726 8.26186 74.2113 8.03288C73.8947 7.75342 73.5442 7.51479 73.1682 7.32259C72.2186 6.83394 71.1637 6.58568 70.0959 6.59958C69.1593 6.58249 68.233 6.7966 67.3989 7.22294C66.623 7.62568 65.9376 8.18268 65.3847 8.85978C64.8231 9.55939 64.3921 10.3545 64.1125 11.2069C63.8147 12.0816 63.6615 12.999 63.6588 13.923C63.6471 14.9205 63.8137 15.9121 64.1507 16.8511C64.4589 17.7068 64.9379 18.4909 65.5585 19.1558C66.1728 19.8082 66.9186 20.3228 67.7466 20.6654C68.6485 21.0315 69.6146 21.2131 70.5878 21.1997C71.308 21.1861 72.0198 21.0424 72.689 20.7757C73.4395 20.4907 74.0897 19.9915 74.559 19.3402H74.6163V20.7078C74.6323 21.1626 74.5575 21.6161 74.3962 22.0417C74.2349 22.4672 73.9904 22.8564 73.677 23.1864C73.0466 23.8324 72.0656 24.1554 70.7341 24.1554C69.8925 24.1694 69.0574 24.0061 68.2831 23.6762C67.5179 23.332 66.8044 22.8832 66.1628 22.3425L63.7563 25.9364C64.7409 26.728 65.8909 27.2881 67.1212 27.5753C68.338 27.8567 69.5827 27.9989 70.8316 27.9994C73.5753 27.9994 75.6185 27.3082 76.9613 25.9258C78.3041 24.5434 78.9763 22.5192 78.9777 19.8533V6.94519H74.9683V8.80254ZM74.7053 15.2227C74.5341 15.6344 74.2834 16.0084 73.9675 16.3231C73.6454 16.6488 73.2668 16.9132 72.8501 17.1034C72.4186 17.2938 71.9521 17.3922 71.4804 17.3922C71.0088 17.3922 70.5423 17.2938 70.1107 17.1034C69.701 16.9145 69.3283 16.6538 69.0103 16.3337C68.6919 16.0162 68.4392 15.639 68.2669 15.2237C68.0945 14.8084 68.0058 14.3631 68.0058 13.9134C68.0058 13.4638 68.0945 13.0185 68.2669 12.6032C68.4392 12.1879 68.6919 11.8107 69.0103 11.4932C69.3289 11.1743 69.7015 10.9145 70.1107 10.7256C70.542 10.534 71.0086 10.435 71.4804 10.435C71.9523 10.435 72.4189 10.534 72.8501 10.7256C73.2657 10.9121 73.6443 11.1721 73.9675 11.4932C74.2854 11.8109 74.5374 12.1885 74.7088 12.604C74.8802 13.0196 74.9676 13.465 74.9661 13.9145C74.968 14.3637 74.8793 14.8086 74.7053 15.2227Z" fill="black"/>
<path d="M42.7007 8.80254H42.6413C42.4399 8.52011 42.2065 8.26186 41.9459 8.03288C41.6281 7.7539 41.277 7.51532 40.9006 7.32259C39.9511 6.83394 38.8962 6.58568 37.8283 6.59958C36.8918 6.58249 35.9654 6.7966 35.1314 7.22294C34.3555 7.62568 33.6701 8.18268 33.1171 8.85978C32.5555 9.55939 32.1246 10.3545 31.845 11.2069C31.5472 12.0816 31.3939 12.999 31.3912 13.923C31.3792 14.9207 31.5465 15.9125 31.8852 16.8511C32.1928 17.7066 32.671 18.4908 33.291 19.1558C33.9053 19.8082 34.6511 20.3228 35.4791 20.6654C36.381 21.0315 37.347 21.2131 38.3203 21.1997C39.0405 21.1861 39.7523 21.0424 40.4214 20.7757C41.1719 20.4907 41.8222 19.9915 42.2915 19.3402H42.3593V20.7078C42.3754 21.1626 42.3005 21.6161 42.1393 22.0417C41.978 22.4672 41.7335 22.8564 41.4201 23.1864C40.7896 23.8324 39.8087 24.1554 38.4771 24.1554C37.6327 24.1711 36.7945 24.0078 36.0176 23.6762C35.2454 23.3326 34.5252 22.8823 33.8783 22.3383L31.4739 25.9321C32.4577 26.7237 33.607 27.2839 34.8367 27.5711C36.0534 27.8524 37.2982 27.9947 38.5471 27.9952C41.2907 27.9952 43.334 27.3039 44.6768 25.9215C46.0196 24.5391 46.6918 22.515 46.6932 19.8491V6.94519H42.6965V8.80254H42.7007ZM42.4399 15.2227C42.2681 15.6346 42.0166 16.0086 41.6999 16.3231C41.3777 16.6449 40.9999 16.9057 40.5847 17.0928C40.1532 17.2832 39.6867 17.3816 39.215 17.3816C38.7433 17.3816 38.2768 17.2832 37.8453 17.0928C37.4351 16.9035 37.0618 16.6429 36.7428 16.3231C36.1017 15.6808 35.7417 14.8103 35.7417 13.9028C35.7417 12.9953 36.1017 12.1249 36.7428 11.4825C37.0626 11.1642 37.4357 10.9044 37.8453 10.715C38.2777 10.518 38.7483 10.4188 39.2235 10.4245C39.6928 10.4223 40.1571 10.5214 40.5847 10.715C40.9993 10.9021 41.3771 11.1621 41.6999 11.4825C42.1782 11.9636 42.5036 12.5753 42.6353 13.2408C42.7669 13.9062 42.699 14.5957 42.4399 15.2227Z" fill="black"/>
<path d="M93.8714 8.53263C93.4876 7.92634 92.942 7.43943 92.2961 7.12689C91.6204 6.78765 90.7334 6.61873 89.6351 6.62014C89.1446 6.61853 88.6565 6.68999 88.187 6.83217C87.7716 6.95573 87.3734 7.13097 87.0018 7.35376C86.6705 7.55247 86.3686 7.79654 86.1049 8.07889C85.9073 8.29018 85.7358 8.52437 85.5939 8.77645V6.97635H81.2559V21.0655H85.6406V14.0411C85.6398 13.5958 85.6688 13.1509 85.7275 12.7095C85.7779 12.3093 85.9 11.9215 86.0879 11.5646C86.2717 11.2212 86.5488 10.9367 86.8873 10.7441C87.3052 10.5234 87.7743 10.418 88.2464 10.4387C88.6644 10.3963 89.0845 10.4961 89.4389 10.7219C89.7932 10.9478 90.0611 11.2865 90.1991 11.6833C90.3473 12.069 90.4353 12.4752 90.4599 12.8876C90.4882 13.323 90.5023 13.7471 90.5023 14.1598V21.0591H94.8425V13.2884C94.8437 12.4042 94.7727 11.5213 94.6305 10.6486C94.5218 9.89957 94.2637 9.17998 93.8714 8.53263Z" fill="black"/>
<path d="M108.105 6.94731V8.80254H108.046C107.843 8.5201 107.609 8.26186 107.348 8.03288C107.031 7.75342 106.681 7.51479 106.305 7.32259C105.355 6.83394 104.3 6.58568 103.233 6.59958C102.296 6.58249 101.37 6.7966 100.536 7.22294C99.7598 7.62568 99.0744 8.18268 98.5214 8.85978C97.9598 9.55939 97.5289 10.3545 97.2493 11.2069C96.9515 12.0816 96.7982 12.999 96.7955 13.923C96.7835 14.9207 96.9508 15.9125 97.2896 16.8511C97.5962 17.7071 98.0746 18.4913 98.6953 19.1558C99.307 19.8108 100.052 20.3277 100.879 20.6718C101.781 21.0395 102.747 21.222 103.72 21.2082C104.441 21.1955 105.153 21.0518 105.821 20.7841C106.572 20.4999 107.223 20.0006 107.692 19.3487H107.749V20.7078C107.767 21.1633 107.693 21.6176 107.533 22.0444C107.373 22.4711 107.129 22.8615 106.816 23.1928C106.185 23.8416 105.204 24.1652 103.873 24.1638C103.03 24.1745 102.194 24.0083 101.42 23.6762C100.655 23.3311 99.9417 22.8823 99.2996 22.3425L96.8931 25.9364C97.8731 26.725 99.0181 27.2829 100.243 27.569C101.46 27.8502 102.705 27.9924 103.954 27.993C106.697 27.993 108.741 27.3025 110.085 25.9215C111.43 24.5405 112.101 22.5164 112.1 19.8491V6.94519H108.105V6.94731ZM107.842 15.2163C107.671 15.6281 107.42 16.002 107.104 16.3167C106.781 16.6386 106.403 16.8994 105.987 17.0864C105.555 17.2768 105.089 17.3752 104.617 17.3752C104.146 17.3752 103.679 17.2768 103.247 17.0864C102.838 16.8975 102.465 16.6369 102.147 16.3167C101.829 15.9992 101.576 15.622 101.404 15.2067C101.231 14.7914 101.143 14.3461 101.143 13.8965C101.143 13.4468 101.231 13.0015 101.404 12.5862C101.576 12.1709 101.829 11.7937 102.147 11.4762C102.466 11.1574 102.838 10.8975 103.247 10.7087C103.679 10.5171 104.145 10.4181 104.617 10.4181C105.089 10.4181 105.556 10.5171 105.987 10.7087C106.402 10.8952 106.781 11.1552 107.104 11.4762C107.422 11.794 107.674 12.1715 107.846 12.5871C108.017 13.0026 108.104 13.448 108.103 13.8975C108.107 14.3524 108.018 14.8033 107.842 15.2227V15.2163Z" fill="black"/>
<path d="M83.4258 5.0547C84.0108 5.05605 84.5782 4.85443 85.0311 4.48422C85.484 4.11402 85.7945 3.59816 85.9096 3.02461C86.0247 2.45106 85.9373 1.85534 85.6622 1.33905C85.3872 0.822765 84.9416 0.417873 84.4013 0.193428C83.8611 -0.0310175 83.2598 -0.0611174 82.6999 0.108263C82.1399 0.277643 81.6561 0.636015 81.3309 1.12226C81.0057 1.6085 80.8592 2.19251 80.9164 2.77468C80.9737 3.35686 81.2311 3.90114 81.6448 4.31473C81.8755 4.5531 82.1525 4.74172 82.4588 4.86899C82.7651 4.99625 83.0942 5.05945 83.4258 5.0547Z" fill="black"/>
</svg>
