<svg width="26" height="31" viewBox="0 0 26 31" fill="none" xmlns="http://www.w3.org/2000/svg">
<path d="M21.2016 8.23131C22.8554 8.23131 24.1962 6.8906 24.1962 5.23675C24.1962 3.5829 22.8554 2.24219 21.2016 2.24219C19.5477 2.24219 18.207 3.5829 18.207 5.23675C18.207 6.8906 19.5477 8.23131 21.2016 8.23131Z" stroke="#17604D" stroke-width="2.76248" stroke-miterlimit="10" stroke-linecap="round"/>
<path d="M21.2016 28.8373C22.8554 28.8373 24.1962 27.4966 24.1962 25.8427C24.1962 24.1889 22.8554 22.8481 21.2016 22.8481C19.5477 22.8481 18.207 24.1889 18.207 25.8427C18.207 27.4966 19.5477 28.8373 21.2016 28.8373Z" stroke="#17604D" stroke-width="2.76248" stroke-miterlimit="10" stroke-linecap="round"/>
<path d="M5.2387 18.9398C6.89255 18.9398 8.23326 17.5991 8.23326 15.9452C8.23326 14.2914 6.89255 12.9507 5.2387 12.9507C3.58485 12.9507 2.24414 14.2914 2.24414 15.9452C2.24414 17.5991 3.58485 18.9398 5.2387 18.9398Z" stroke="#17604D" stroke-width="2.76248" stroke-miterlimit="10" stroke-linecap="round"/>
<path d="M18.5784 6.67773L7.3125 13.7869" stroke="#17604D" stroke-width="2.76248" stroke-miterlimit="10" stroke-linecap="round"/>
<path d="M7.16016 18.2417L18.4378 24.6948" stroke="#17604D" stroke-width="2.76248" stroke-miterlimit="10" stroke-linecap="round"/>
</svg>
